<mxfile host="app.diagrams.net" modified="2023-06-30T16:44:00.199Z" agent="Mozilla/5.0 (Windows NT 10.0; Win64; x64) AppleWebKit/537.36 (KHTML, like Gecko) Chrome/114.0.0.0 Safari/537.36" etag="zbjQPPYxfujQBsJc7ENh" version="21.5.0" type="device">
  <diagram name="Page-1" id="XKvMm1ztO2zsUr1VdnXC">
    <mxGraphModel dx="1302" dy="724" grid="1" gridSize="10" guides="1" tooltips="1" connect="1" arrows="1" fold="1" page="1" pageScale="1" pageWidth="850" pageHeight="1100" math="0" shadow="0">
      <root>
        <mxCell id="0" />
        <mxCell id="1" parent="0" />
        <mxCell id="Ps-wqb1I6WNBujcLBkqB-1" value="" style="rounded=0;whiteSpace=wrap;html=1;" parent="1" vertex="1">
          <mxGeometry x="40" y="40" width="18" height="600" as="geometry" />
        </mxCell>
        <mxCell id="Ps-wqb1I6WNBujcLBkqB-2" value="" style="rounded=0;whiteSpace=wrap;html=1;" parent="1" vertex="1">
          <mxGeometry x="408" y="40" width="18" height="600" as="geometry" />
        </mxCell>
        <mxCell id="Ps-wqb1I6WNBujcLBkqB-3" value="" style="rounded=0;whiteSpace=wrap;html=1;" parent="1" vertex="1">
          <mxGeometry x="58" y="40" width="350" height="18" as="geometry" />
        </mxCell>
        <mxCell id="Ps-wqb1I6WNBujcLBkqB-4" value="" style="rounded=0;whiteSpace=wrap;html=1;" parent="1" vertex="1">
          <mxGeometry x="58" y="622" width="350" height="18" as="geometry" />
        </mxCell>
        <mxCell id="Ps-wqb1I6WNBujcLBkqB-5" value="" style="rounded=0;whiteSpace=wrap;html=1;" parent="1" vertex="1">
          <mxGeometry x="58" y="403" width="350" height="18" as="geometry" />
        </mxCell>
        <mxCell id="Ps-wqb1I6WNBujcLBkqB-6" value="" style="endArrow=classic;startArrow=classic;html=1;rounded=0;" parent="1" edge="1">
          <mxGeometry width="50" height="50" relative="1" as="geometry">
            <mxPoint x="160" y="621" as="sourcePoint" />
            <mxPoint x="160" y="421" as="targetPoint" />
          </mxGeometry>
        </mxCell>
        <mxCell id="Ps-wqb1I6WNBujcLBkqB-11" value="20 cm" style="edgeLabel;html=1;align=center;verticalAlign=middle;resizable=0;points=[];" parent="Ps-wqb1I6WNBujcLBkqB-6" vertex="1" connectable="0">
          <mxGeometry x="-0.14" relative="1" as="geometry">
            <mxPoint x="20" y="-5" as="offset" />
          </mxGeometry>
        </mxCell>
        <mxCell id="Ps-wqb1I6WNBujcLBkqB-8" value="" style="endArrow=classic;startArrow=classic;html=1;rounded=0;" parent="1" edge="1">
          <mxGeometry width="50" height="50" relative="1" as="geometry">
            <mxPoint x="160" y="403" as="sourcePoint" />
            <mxPoint x="160" y="203" as="targetPoint" />
          </mxGeometry>
        </mxCell>
        <mxCell id="Ps-wqb1I6WNBujcLBkqB-10" value="20 cm" style="edgeLabel;html=1;align=center;verticalAlign=middle;resizable=0;points=[];" parent="Ps-wqb1I6WNBujcLBkqB-8" vertex="1" connectable="0">
          <mxGeometry x="0.1033" y="-1" relative="1" as="geometry">
            <mxPoint x="19" as="offset" />
          </mxGeometry>
        </mxCell>
        <mxCell id="Ps-wqb1I6WNBujcLBkqB-9" value="" style="rounded=0;whiteSpace=wrap;html=1;" parent="1" vertex="1">
          <mxGeometry x="58" y="184" width="350" height="18" as="geometry" />
        </mxCell>
        <mxCell id="Ps-wqb1I6WNBujcLBkqB-12" value="" style="endArrow=classic;startArrow=classic;html=1;rounded=0;" parent="1" edge="1">
          <mxGeometry width="50" height="50" relative="1" as="geometry">
            <mxPoint x="410" y="20" as="sourcePoint" />
            <mxPoint x="58" y="20" as="targetPoint" />
          </mxGeometry>
        </mxCell>
        <mxCell id="Ps-wqb1I6WNBujcLBkqB-13" value="35&amp;nbsp;cm" style="edgeLabel;html=1;align=center;verticalAlign=middle;resizable=0;points=[];" parent="Ps-wqb1I6WNBujcLBkqB-12" vertex="1" connectable="0">
          <mxGeometry x="0.1033" y="-1" relative="1" as="geometry">
            <mxPoint x="19" as="offset" />
          </mxGeometry>
        </mxCell>
        <mxCell id="Ps-wqb1I6WNBujcLBkqB-14" value="" style="rounded=0;whiteSpace=wrap;html=1;" parent="1" vertex="1">
          <mxGeometry x="480" y="40" width="350" height="600" as="geometry" />
        </mxCell>
        <mxCell id="Ps-wqb1I6WNBujcLBkqB-15" value="" style="rounded=1;whiteSpace=wrap;html=1;fillColor=#E6E6E6;fillStyle=cross-hatch;absoluteArcSize=1;" parent="1" vertex="1">
          <mxGeometry x="510" y="70" width="130" height="100" as="geometry" />
        </mxCell>
        <mxCell id="Ps-wqb1I6WNBujcLBkqB-16" value="" style="rounded=1;whiteSpace=wrap;html=1;fillStyle=cross-hatch;fillColor=#E6E6E6;absoluteArcSize=1;" parent="1" vertex="1">
          <mxGeometry x="510" y="210" width="130" height="180" as="geometry" />
        </mxCell>
        <mxCell id="Ps-wqb1I6WNBujcLBkqB-17" value="" style="rounded=1;whiteSpace=wrap;html=1;fillColor=#E6E6E6;fillStyle=cross-hatch;shadow=0;glass=0;absoluteArcSize=1;" parent="1" vertex="1">
          <mxGeometry x="510" y="430" width="130" height="180" as="geometry" />
        </mxCell>
        <mxCell id="Ps-wqb1I6WNBujcLBkqB-18" value="" style="rounded=0;whiteSpace=wrap;html=1;" parent="1" vertex="1">
          <mxGeometry x="58" y="720" width="350" height="350" as="geometry" />
        </mxCell>
        <mxCell id="Ps-wqb1I6WNBujcLBkqB-19" value="" style="endArrow=classic;startArrow=classic;html=1;rounded=0;" parent="1" edge="1">
          <mxGeometry width="50" height="50" relative="1" as="geometry">
            <mxPoint x="408" y="700" as="sourcePoint" />
            <mxPoint x="56" y="700" as="targetPoint" />
          </mxGeometry>
        </mxCell>
        <mxCell id="Ps-wqb1I6WNBujcLBkqB-20" value="35&amp;nbsp;cm" style="edgeLabel;html=1;align=center;verticalAlign=middle;resizable=0;points=[];" parent="Ps-wqb1I6WNBujcLBkqB-19" vertex="1" connectable="0">
          <mxGeometry x="0.1033" y="-1" relative="1" as="geometry">
            <mxPoint x="19" as="offset" />
          </mxGeometry>
        </mxCell>
        <mxCell id="Ps-wqb1I6WNBujcLBkqB-21" value="" style="endArrow=classic;startArrow=classic;html=1;rounded=0;" parent="1" edge="1">
          <mxGeometry width="50" height="50" relative="1" as="geometry">
            <mxPoint x="440" y="1070" as="sourcePoint" />
            <mxPoint x="440" y="720" as="targetPoint" />
          </mxGeometry>
        </mxCell>
        <mxCell id="Ps-wqb1I6WNBujcLBkqB-22" value="35 cm" style="edgeLabel;html=1;align=center;verticalAlign=middle;resizable=0;points=[];" parent="Ps-wqb1I6WNBujcLBkqB-21" vertex="1" connectable="0">
          <mxGeometry x="0.1033" y="-1" relative="1" as="geometry">
            <mxPoint x="19" as="offset" />
          </mxGeometry>
        </mxCell>
        <mxCell id="Ps-wqb1I6WNBujcLBkqB-23" value="" style="endArrow=classic;startArrow=classic;html=1;rounded=0;" parent="1" edge="1">
          <mxGeometry width="50" height="50" relative="1" as="geometry">
            <mxPoint x="10" y="640" as="sourcePoint" />
            <mxPoint x="10" y="40" as="targetPoint" />
          </mxGeometry>
        </mxCell>
        <mxCell id="Ps-wqb1I6WNBujcLBkqB-24" value="60 cm" style="edgeLabel;html=1;align=center;verticalAlign=middle;resizable=0;points=[];" parent="Ps-wqb1I6WNBujcLBkqB-23" vertex="1" connectable="0">
          <mxGeometry x="0.1033" y="-1" relative="1" as="geometry">
            <mxPoint x="19" as="offset" />
          </mxGeometry>
        </mxCell>
        <mxCell id="Ps-wqb1I6WNBujcLBkqB-25" value="" style="endArrow=classic;startArrow=classic;html=1;rounded=0;" parent="1" edge="1">
          <mxGeometry width="50" height="50" relative="1" as="geometry">
            <mxPoint x="460" y="640" as="sourcePoint" />
            <mxPoint x="460" y="40" as="targetPoint" />
          </mxGeometry>
        </mxCell>
        <mxCell id="Ps-wqb1I6WNBujcLBkqB-26" value="60 cm" style="edgeLabel;html=1;align=center;verticalAlign=middle;resizable=0;points=[];" parent="Ps-wqb1I6WNBujcLBkqB-25" vertex="1" connectable="0">
          <mxGeometry x="0.1033" y="-1" relative="1" as="geometry">
            <mxPoint x="19" as="offset" />
          </mxGeometry>
        </mxCell>
        <mxCell id="Ps-wqb1I6WNBujcLBkqB-27" value="" style="endArrow=classic;startArrow=classic;html=1;rounded=0;" parent="1" edge="1">
          <mxGeometry width="50" height="50" relative="1" as="geometry">
            <mxPoint x="830" y="20" as="sourcePoint" />
            <mxPoint x="480" y="20" as="targetPoint" />
          </mxGeometry>
        </mxCell>
        <mxCell id="Ps-wqb1I6WNBujcLBkqB-28" value="35&amp;nbsp;cm" style="edgeLabel;html=1;align=center;verticalAlign=middle;resizable=0;points=[];" parent="Ps-wqb1I6WNBujcLBkqB-27" vertex="1" connectable="0">
          <mxGeometry x="0.1033" y="-1" relative="1" as="geometry">
            <mxPoint x="19" as="offset" />
          </mxGeometry>
        </mxCell>
        <mxCell id="Ps-wqb1I6WNBujcLBkqB-30" value="" style="ellipse;whiteSpace=wrap;html=1;aspect=fixed;" parent="1" vertex="1">
          <mxGeometry x="90" y="750" width="10" height="10" as="geometry" />
        </mxCell>
        <mxCell id="Ps-wqb1I6WNBujcLBkqB-31" value="" style="ellipse;whiteSpace=wrap;html=1;aspect=fixed;" parent="1" vertex="1">
          <mxGeometry x="120" y="750" width="10" height="10" as="geometry" />
        </mxCell>
        <mxCell id="Ps-wqb1I6WNBujcLBkqB-32" value="" style="ellipse;whiteSpace=wrap;html=1;aspect=fixed;" parent="1" vertex="1">
          <mxGeometry x="150" y="750" width="10" height="10" as="geometry" />
        </mxCell>
        <mxCell id="Ps-wqb1I6WNBujcLBkqB-33" value="" style="ellipse;whiteSpace=wrap;html=1;aspect=fixed;" parent="1" vertex="1">
          <mxGeometry x="180" y="750" width="10" height="10" as="geometry" />
        </mxCell>
        <mxCell id="Ps-wqb1I6WNBujcLBkqB-34" value="" style="ellipse;whiteSpace=wrap;html=1;aspect=fixed;" parent="1" vertex="1">
          <mxGeometry x="210" y="750" width="10" height="10" as="geometry" />
        </mxCell>
        <mxCell id="Ps-wqb1I6WNBujcLBkqB-35" value="" style="ellipse;whiteSpace=wrap;html=1;aspect=fixed;" parent="1" vertex="1">
          <mxGeometry x="240" y="750" width="10" height="10" as="geometry" />
        </mxCell>
        <mxCell id="Ps-wqb1I6WNBujcLBkqB-36" value="" style="ellipse;whiteSpace=wrap;html=1;aspect=fixed;" parent="1" vertex="1">
          <mxGeometry x="270" y="750" width="10" height="10" as="geometry" />
        </mxCell>
        <mxCell id="Ps-wqb1I6WNBujcLBkqB-37" value="" style="ellipse;whiteSpace=wrap;html=1;aspect=fixed;" parent="1" vertex="1">
          <mxGeometry x="300" y="750" width="10" height="10" as="geometry" />
        </mxCell>
        <mxCell id="Ps-wqb1I6WNBujcLBkqB-38" value="" style="ellipse;whiteSpace=wrap;html=1;aspect=fixed;" parent="1" vertex="1">
          <mxGeometry x="330" y="750" width="10" height="10" as="geometry" />
        </mxCell>
        <mxCell id="Ps-wqb1I6WNBujcLBkqB-39" value="" style="ellipse;whiteSpace=wrap;html=1;aspect=fixed;" parent="1" vertex="1">
          <mxGeometry x="360" y="750" width="10" height="10" as="geometry" />
        </mxCell>
        <mxCell id="Ps-wqb1I6WNBujcLBkqB-41" value="" style="ellipse;whiteSpace=wrap;html=1;aspect=fixed;" parent="1" vertex="1">
          <mxGeometry x="105" y="780" width="10" height="10" as="geometry" />
        </mxCell>
        <mxCell id="Ps-wqb1I6WNBujcLBkqB-42" value="" style="ellipse;whiteSpace=wrap;html=1;aspect=fixed;" parent="1" vertex="1">
          <mxGeometry x="135" y="780" width="10" height="10" as="geometry" />
        </mxCell>
        <mxCell id="Ps-wqb1I6WNBujcLBkqB-43" value="" style="ellipse;whiteSpace=wrap;html=1;aspect=fixed;" parent="1" vertex="1">
          <mxGeometry x="165" y="780" width="10" height="10" as="geometry" />
        </mxCell>
        <mxCell id="Ps-wqb1I6WNBujcLBkqB-44" value="" style="ellipse;whiteSpace=wrap;html=1;aspect=fixed;" parent="1" vertex="1">
          <mxGeometry x="195" y="780" width="10" height="10" as="geometry" />
        </mxCell>
        <mxCell id="Ps-wqb1I6WNBujcLBkqB-45" value="" style="ellipse;whiteSpace=wrap;html=1;aspect=fixed;" parent="1" vertex="1">
          <mxGeometry x="225" y="780" width="10" height="10" as="geometry" />
        </mxCell>
        <mxCell id="Ps-wqb1I6WNBujcLBkqB-46" value="" style="ellipse;whiteSpace=wrap;html=1;aspect=fixed;" parent="1" vertex="1">
          <mxGeometry x="255" y="780" width="10" height="10" as="geometry" />
        </mxCell>
        <mxCell id="Ps-wqb1I6WNBujcLBkqB-47" value="" style="ellipse;whiteSpace=wrap;html=1;aspect=fixed;" parent="1" vertex="1">
          <mxGeometry x="285" y="780" width="10" height="10" as="geometry" />
        </mxCell>
        <mxCell id="Ps-wqb1I6WNBujcLBkqB-48" value="" style="ellipse;whiteSpace=wrap;html=1;aspect=fixed;" parent="1" vertex="1">
          <mxGeometry x="315" y="780" width="10" height="10" as="geometry" />
        </mxCell>
        <mxCell id="Ps-wqb1I6WNBujcLBkqB-49" value="" style="ellipse;whiteSpace=wrap;html=1;aspect=fixed;" parent="1" vertex="1">
          <mxGeometry x="345" y="780" width="10" height="10" as="geometry" />
        </mxCell>
        <mxCell id="Ps-wqb1I6WNBujcLBkqB-69" value="" style="ellipse;whiteSpace=wrap;html=1;aspect=fixed;" parent="1" vertex="1">
          <mxGeometry x="90" y="810" width="10" height="10" as="geometry" />
        </mxCell>
        <mxCell id="Ps-wqb1I6WNBujcLBkqB-70" value="" style="ellipse;whiteSpace=wrap;html=1;aspect=fixed;" parent="1" vertex="1">
          <mxGeometry x="120" y="810" width="10" height="10" as="geometry" />
        </mxCell>
        <mxCell id="Ps-wqb1I6WNBujcLBkqB-71" value="" style="ellipse;whiteSpace=wrap;html=1;aspect=fixed;" parent="1" vertex="1">
          <mxGeometry x="150" y="810" width="10" height="10" as="geometry" />
        </mxCell>
        <mxCell id="Ps-wqb1I6WNBujcLBkqB-72" value="" style="ellipse;whiteSpace=wrap;html=1;aspect=fixed;" parent="1" vertex="1">
          <mxGeometry x="180" y="810" width="10" height="10" as="geometry" />
        </mxCell>
        <mxCell id="Ps-wqb1I6WNBujcLBkqB-73" value="" style="ellipse;whiteSpace=wrap;html=1;aspect=fixed;" parent="1" vertex="1">
          <mxGeometry x="210" y="810" width="10" height="10" as="geometry" />
        </mxCell>
        <mxCell id="Ps-wqb1I6WNBujcLBkqB-74" value="" style="ellipse;whiteSpace=wrap;html=1;aspect=fixed;" parent="1" vertex="1">
          <mxGeometry x="240" y="810" width="10" height="10" as="geometry" />
        </mxCell>
        <mxCell id="Ps-wqb1I6WNBujcLBkqB-75" value="" style="ellipse;whiteSpace=wrap;html=1;aspect=fixed;" parent="1" vertex="1">
          <mxGeometry x="270" y="810" width="10" height="10" as="geometry" />
        </mxCell>
        <mxCell id="Ps-wqb1I6WNBujcLBkqB-76" value="" style="ellipse;whiteSpace=wrap;html=1;aspect=fixed;" parent="1" vertex="1">
          <mxGeometry x="300" y="810" width="10" height="10" as="geometry" />
        </mxCell>
        <mxCell id="Ps-wqb1I6WNBujcLBkqB-77" value="" style="ellipse;whiteSpace=wrap;html=1;aspect=fixed;" parent="1" vertex="1">
          <mxGeometry x="330" y="810" width="10" height="10" as="geometry" />
        </mxCell>
        <mxCell id="Ps-wqb1I6WNBujcLBkqB-78" value="" style="ellipse;whiteSpace=wrap;html=1;aspect=fixed;" parent="1" vertex="1">
          <mxGeometry x="360" y="810" width="10" height="10" as="geometry" />
        </mxCell>
        <mxCell id="Ps-wqb1I6WNBujcLBkqB-79" value="" style="ellipse;whiteSpace=wrap;html=1;aspect=fixed;" parent="1" vertex="1">
          <mxGeometry x="105" y="840" width="10" height="10" as="geometry" />
        </mxCell>
        <mxCell id="Ps-wqb1I6WNBujcLBkqB-80" value="" style="ellipse;whiteSpace=wrap;html=1;aspect=fixed;" parent="1" vertex="1">
          <mxGeometry x="135" y="840" width="10" height="10" as="geometry" />
        </mxCell>
        <mxCell id="Ps-wqb1I6WNBujcLBkqB-81" value="" style="ellipse;whiteSpace=wrap;html=1;aspect=fixed;" parent="1" vertex="1">
          <mxGeometry x="165" y="840" width="10" height="10" as="geometry" />
        </mxCell>
        <mxCell id="Ps-wqb1I6WNBujcLBkqB-82" value="" style="ellipse;whiteSpace=wrap;html=1;aspect=fixed;" parent="1" vertex="1">
          <mxGeometry x="195" y="840" width="10" height="10" as="geometry" />
        </mxCell>
        <mxCell id="Ps-wqb1I6WNBujcLBkqB-83" value="" style="ellipse;whiteSpace=wrap;html=1;aspect=fixed;" parent="1" vertex="1">
          <mxGeometry x="225" y="840" width="10" height="10" as="geometry" />
        </mxCell>
        <mxCell id="Ps-wqb1I6WNBujcLBkqB-84" value="" style="ellipse;whiteSpace=wrap;html=1;aspect=fixed;" parent="1" vertex="1">
          <mxGeometry x="255" y="840" width="10" height="10" as="geometry" />
        </mxCell>
        <mxCell id="Ps-wqb1I6WNBujcLBkqB-85" value="" style="ellipse;whiteSpace=wrap;html=1;aspect=fixed;" parent="1" vertex="1">
          <mxGeometry x="285" y="840" width="10" height="10" as="geometry" />
        </mxCell>
        <mxCell id="Ps-wqb1I6WNBujcLBkqB-86" value="" style="ellipse;whiteSpace=wrap;html=1;aspect=fixed;" parent="1" vertex="1">
          <mxGeometry x="315" y="840" width="10" height="10" as="geometry" />
        </mxCell>
        <mxCell id="Ps-wqb1I6WNBujcLBkqB-87" value="" style="ellipse;whiteSpace=wrap;html=1;aspect=fixed;" parent="1" vertex="1">
          <mxGeometry x="345" y="840" width="10" height="10" as="geometry" />
        </mxCell>
        <mxCell id="Ps-wqb1I6WNBujcLBkqB-88" value="" style="ellipse;whiteSpace=wrap;html=1;aspect=fixed;" parent="1" vertex="1">
          <mxGeometry x="90" y="870" width="10" height="10" as="geometry" />
        </mxCell>
        <mxCell id="Ps-wqb1I6WNBujcLBkqB-89" value="" style="ellipse;whiteSpace=wrap;html=1;aspect=fixed;" parent="1" vertex="1">
          <mxGeometry x="120" y="870" width="10" height="10" as="geometry" />
        </mxCell>
        <mxCell id="Ps-wqb1I6WNBujcLBkqB-90" value="" style="ellipse;whiteSpace=wrap;html=1;aspect=fixed;" parent="1" vertex="1">
          <mxGeometry x="150" y="870" width="10" height="10" as="geometry" />
        </mxCell>
        <mxCell id="Ps-wqb1I6WNBujcLBkqB-91" value="" style="ellipse;whiteSpace=wrap;html=1;aspect=fixed;" parent="1" vertex="1">
          <mxGeometry x="180" y="870" width="10" height="10" as="geometry" />
        </mxCell>
        <mxCell id="Ps-wqb1I6WNBujcLBkqB-92" value="" style="ellipse;whiteSpace=wrap;html=1;aspect=fixed;" parent="1" vertex="1">
          <mxGeometry x="210" y="870" width="10" height="10" as="geometry" />
        </mxCell>
        <mxCell id="Ps-wqb1I6WNBujcLBkqB-93" value="" style="ellipse;whiteSpace=wrap;html=1;aspect=fixed;" parent="1" vertex="1">
          <mxGeometry x="240" y="870" width="10" height="10" as="geometry" />
        </mxCell>
        <mxCell id="Ps-wqb1I6WNBujcLBkqB-94" value="" style="ellipse;whiteSpace=wrap;html=1;aspect=fixed;" parent="1" vertex="1">
          <mxGeometry x="270" y="870" width="10" height="10" as="geometry" />
        </mxCell>
        <mxCell id="Ps-wqb1I6WNBujcLBkqB-95" value="" style="ellipse;whiteSpace=wrap;html=1;aspect=fixed;" parent="1" vertex="1">
          <mxGeometry x="300" y="870" width="10" height="10" as="geometry" />
        </mxCell>
        <mxCell id="Ps-wqb1I6WNBujcLBkqB-96" value="" style="ellipse;whiteSpace=wrap;html=1;aspect=fixed;" parent="1" vertex="1">
          <mxGeometry x="330" y="870" width="10" height="10" as="geometry" />
        </mxCell>
        <mxCell id="Ps-wqb1I6WNBujcLBkqB-97" value="" style="ellipse;whiteSpace=wrap;html=1;aspect=fixed;" parent="1" vertex="1">
          <mxGeometry x="360" y="870" width="10" height="10" as="geometry" />
        </mxCell>
        <mxCell id="Ps-wqb1I6WNBujcLBkqB-98" value="" style="ellipse;whiteSpace=wrap;html=1;aspect=fixed;" parent="1" vertex="1">
          <mxGeometry x="105" y="900" width="10" height="10" as="geometry" />
        </mxCell>
        <mxCell id="Ps-wqb1I6WNBujcLBkqB-99" value="" style="ellipse;whiteSpace=wrap;html=1;aspect=fixed;" parent="1" vertex="1">
          <mxGeometry x="135" y="900" width="10" height="10" as="geometry" />
        </mxCell>
        <mxCell id="Ps-wqb1I6WNBujcLBkqB-100" value="" style="ellipse;whiteSpace=wrap;html=1;aspect=fixed;" parent="1" vertex="1">
          <mxGeometry x="165" y="900" width="10" height="10" as="geometry" />
        </mxCell>
        <mxCell id="Ps-wqb1I6WNBujcLBkqB-101" value="" style="ellipse;whiteSpace=wrap;html=1;aspect=fixed;" parent="1" vertex="1">
          <mxGeometry x="195" y="900" width="10" height="10" as="geometry" />
        </mxCell>
        <mxCell id="Ps-wqb1I6WNBujcLBkqB-102" value="" style="ellipse;whiteSpace=wrap;html=1;aspect=fixed;" parent="1" vertex="1">
          <mxGeometry x="225" y="900" width="10" height="10" as="geometry" />
        </mxCell>
        <mxCell id="Ps-wqb1I6WNBujcLBkqB-103" value="" style="ellipse;whiteSpace=wrap;html=1;aspect=fixed;" parent="1" vertex="1">
          <mxGeometry x="255" y="900" width="10" height="10" as="geometry" />
        </mxCell>
        <mxCell id="Ps-wqb1I6WNBujcLBkqB-104" value="" style="ellipse;whiteSpace=wrap;html=1;aspect=fixed;" parent="1" vertex="1">
          <mxGeometry x="285" y="900" width="10" height="10" as="geometry" />
        </mxCell>
        <mxCell id="Ps-wqb1I6WNBujcLBkqB-105" value="" style="ellipse;whiteSpace=wrap;html=1;aspect=fixed;" parent="1" vertex="1">
          <mxGeometry x="315" y="900" width="10" height="10" as="geometry" />
        </mxCell>
        <mxCell id="Ps-wqb1I6WNBujcLBkqB-106" value="" style="ellipse;whiteSpace=wrap;html=1;aspect=fixed;" parent="1" vertex="1">
          <mxGeometry x="345" y="900" width="10" height="10" as="geometry" />
        </mxCell>
        <mxCell id="Ps-wqb1I6WNBujcLBkqB-127" value="" style="ellipse;whiteSpace=wrap;html=1;aspect=fixed;" parent="1" vertex="1">
          <mxGeometry x="90" y="930" width="10" height="10" as="geometry" />
        </mxCell>
        <mxCell id="Ps-wqb1I6WNBujcLBkqB-128" value="" style="ellipse;whiteSpace=wrap;html=1;aspect=fixed;" parent="1" vertex="1">
          <mxGeometry x="120" y="930" width="10" height="10" as="geometry" />
        </mxCell>
        <mxCell id="Ps-wqb1I6WNBujcLBkqB-129" value="" style="ellipse;whiteSpace=wrap;html=1;aspect=fixed;" parent="1" vertex="1">
          <mxGeometry x="150" y="930" width="10" height="10" as="geometry" />
        </mxCell>
        <mxCell id="Ps-wqb1I6WNBujcLBkqB-130" value="" style="ellipse;whiteSpace=wrap;html=1;aspect=fixed;" parent="1" vertex="1">
          <mxGeometry x="180" y="930" width="10" height="10" as="geometry" />
        </mxCell>
        <mxCell id="Ps-wqb1I6WNBujcLBkqB-131" value="" style="ellipse;whiteSpace=wrap;html=1;aspect=fixed;" parent="1" vertex="1">
          <mxGeometry x="210" y="930" width="10" height="10" as="geometry" />
        </mxCell>
        <mxCell id="Ps-wqb1I6WNBujcLBkqB-132" value="" style="ellipse;whiteSpace=wrap;html=1;aspect=fixed;" parent="1" vertex="1">
          <mxGeometry x="240" y="930" width="10" height="10" as="geometry" />
        </mxCell>
        <mxCell id="Ps-wqb1I6WNBujcLBkqB-133" value="" style="ellipse;whiteSpace=wrap;html=1;aspect=fixed;" parent="1" vertex="1">
          <mxGeometry x="270" y="930" width="10" height="10" as="geometry" />
        </mxCell>
        <mxCell id="Ps-wqb1I6WNBujcLBkqB-134" value="" style="ellipse;whiteSpace=wrap;html=1;aspect=fixed;" parent="1" vertex="1">
          <mxGeometry x="300" y="930" width="10" height="10" as="geometry" />
        </mxCell>
        <mxCell id="Ps-wqb1I6WNBujcLBkqB-135" value="" style="ellipse;whiteSpace=wrap;html=1;aspect=fixed;" parent="1" vertex="1">
          <mxGeometry x="330" y="930" width="10" height="10" as="geometry" />
        </mxCell>
        <mxCell id="Ps-wqb1I6WNBujcLBkqB-136" value="" style="ellipse;whiteSpace=wrap;html=1;aspect=fixed;" parent="1" vertex="1">
          <mxGeometry x="360" y="930" width="10" height="10" as="geometry" />
        </mxCell>
        <mxCell id="Ps-wqb1I6WNBujcLBkqB-137" value="" style="rounded=1;whiteSpace=wrap;html=1;fillColor=#E6E6E6;fillStyle=cross-hatch;shadow=0;glass=0;absoluteArcSize=1;" parent="1" vertex="1">
          <mxGeometry x="83" y="1030" width="300" height="40" as="geometry" />
        </mxCell>
        <mxCell id="Ps-wqb1I6WNBujcLBkqB-138" value="" style="endArrow=none;html=1;strokeWidth=1;rounded=0;fillColor=#dae8fc;strokeColor=#6c8ebf;" parent="1" edge="1">
          <mxGeometry width="50" height="50" relative="1" as="geometry">
            <mxPoint x="426" y="59" as="sourcePoint" />
            <mxPoint x="850" y="59" as="targetPoint" />
          </mxGeometry>
        </mxCell>
        <mxCell id="Ps-wqb1I6WNBujcLBkqB-139" value="" style="endArrow=none;html=1;strokeWidth=1;rounded=0;exitX=1;exitY=1;exitDx=0;exitDy=0;entryX=1;entryY=0.239;entryDx=0;entryDy=0;entryPerimeter=0;fillColor=#dae8fc;strokeColor=#6c8ebf;" parent="1" target="Ps-wqb1I6WNBujcLBkqB-14" edge="1">
          <mxGeometry width="50" height="50" relative="1" as="geometry">
            <mxPoint x="426" y="184" as="sourcePoint" />
            <mxPoint x="850" y="185" as="targetPoint" />
          </mxGeometry>
        </mxCell>
        <mxCell id="Ps-wqb1I6WNBujcLBkqB-140" value="" style="endArrow=none;html=1;strokeWidth=1;rounded=0;exitX=1;exitY=1;exitDx=0;exitDy=0;entryX=1;entryY=0.269;entryDx=0;entryDy=0;entryPerimeter=0;fillColor=#dae8fc;strokeColor=#6c8ebf;" parent="1" target="Ps-wqb1I6WNBujcLBkqB-14" edge="1">
          <mxGeometry width="50" height="50" relative="1" as="geometry">
            <mxPoint x="426" y="202" as="sourcePoint" />
            <mxPoint x="850" y="203" as="targetPoint" />
          </mxGeometry>
        </mxCell>
        <mxCell id="Ps-wqb1I6WNBujcLBkqB-143" value="" style="endArrow=none;html=1;strokeWidth=1;rounded=0;exitX=1;exitY=1;exitDx=0;exitDy=0;entryX=0.999;entryY=0.602;entryDx=0;entryDy=0;entryPerimeter=0;fillColor=#dae8fc;strokeColor=#6c8ebf;" parent="1" target="Ps-wqb1I6WNBujcLBkqB-14" edge="1">
          <mxGeometry width="50" height="50" relative="1" as="geometry">
            <mxPoint x="426" y="403" as="sourcePoint" />
            <mxPoint x="850" y="404" as="targetPoint" />
          </mxGeometry>
        </mxCell>
        <mxCell id="Ps-wqb1I6WNBujcLBkqB-144" value="" style="endArrow=none;html=1;strokeWidth=1;rounded=0;exitX=1;exitY=1;exitDx=0;exitDy=0;entryX=0.999;entryY=0.633;entryDx=0;entryDy=0;entryPerimeter=0;fillColor=#dae8fc;strokeColor=#6c8ebf;" parent="1" target="Ps-wqb1I6WNBujcLBkqB-14" edge="1">
          <mxGeometry width="50" height="50" relative="1" as="geometry">
            <mxPoint x="426" y="421" as="sourcePoint" />
            <mxPoint x="850" y="422" as="targetPoint" />
          </mxGeometry>
        </mxCell>
        <mxCell id="Ps-wqb1I6WNBujcLBkqB-145" value="" style="endArrow=none;html=1;strokeWidth=1;rounded=0;exitX=1;exitY=1;exitDx=0;exitDy=0;entryX=1;entryY=0.969;entryDx=0;entryDy=0;entryPerimeter=0;fillColor=#dae8fc;strokeColor=#6c8ebf;" parent="1" target="Ps-wqb1I6WNBujcLBkqB-14" edge="1">
          <mxGeometry width="50" height="50" relative="1" as="geometry">
            <mxPoint x="426" y="622" as="sourcePoint" />
            <mxPoint x="850" y="623" as="targetPoint" />
          </mxGeometry>
        </mxCell>
        <mxCell id="Ps-wqb1I6WNBujcLBkqB-146" value="" style="endArrow=none;html=1;strokeWidth=1;rounded=0;exitX=1;exitY=1;exitDx=0;exitDy=0;entryX=1;entryY=1;entryDx=0;entryDy=0;fillColor=#dae8fc;strokeColor=#6c8ebf;" parent="1" target="Ps-wqb1I6WNBujcLBkqB-14" edge="1">
          <mxGeometry width="50" height="50" relative="1" as="geometry">
            <mxPoint x="426" y="640" as="sourcePoint" />
            <mxPoint x="850" y="641" as="targetPoint" />
          </mxGeometry>
        </mxCell>
        <mxCell id="Ps-wqb1I6WNBujcLBkqB-147" value="" style="rounded=1;whiteSpace=wrap;html=1;fillColor=#E6E6E6;fillStyle=cross-hatch;absoluteArcSize=1;perimeterSpacing=0;" parent="1" vertex="1">
          <mxGeometry x="670" y="70" width="130" height="100" as="geometry" />
        </mxCell>
        <mxCell id="Ps-wqb1I6WNBujcLBkqB-148" value="" style="rounded=1;whiteSpace=wrap;html=1;fillStyle=cross-hatch;fillColor=#E6E6E6;absoluteArcSize=1;" parent="1" vertex="1">
          <mxGeometry x="670" y="210" width="130" height="180" as="geometry" />
        </mxCell>
        <mxCell id="Ps-wqb1I6WNBujcLBkqB-149" value="" style="rounded=1;whiteSpace=wrap;html=1;fillColor=#E6E6E6;fillStyle=cross-hatch;shadow=0;glass=0;absoluteArcSize=1;" parent="1" vertex="1">
          <mxGeometry x="670" y="430" width="130" height="180" as="geometry" />
        </mxCell>
        <mxCell id="d5UcNyZ8xTuPlKqGbqK6-1" value="" style="ellipse;whiteSpace=wrap;html=1;aspect=fixed;" vertex="1" parent="1">
          <mxGeometry x="105" y="960" width="10" height="10" as="geometry" />
        </mxCell>
        <mxCell id="d5UcNyZ8xTuPlKqGbqK6-2" value="" style="ellipse;whiteSpace=wrap;html=1;aspect=fixed;" vertex="1" parent="1">
          <mxGeometry x="135" y="960" width="10" height="10" as="geometry" />
        </mxCell>
        <mxCell id="d5UcNyZ8xTuPlKqGbqK6-3" value="" style="ellipse;whiteSpace=wrap;html=1;aspect=fixed;" vertex="1" parent="1">
          <mxGeometry x="165" y="960" width="10" height="10" as="geometry" />
        </mxCell>
        <mxCell id="d5UcNyZ8xTuPlKqGbqK6-4" value="" style="ellipse;whiteSpace=wrap;html=1;aspect=fixed;" vertex="1" parent="1">
          <mxGeometry x="195" y="960" width="10" height="10" as="geometry" />
        </mxCell>
        <mxCell id="d5UcNyZ8xTuPlKqGbqK6-5" value="" style="ellipse;whiteSpace=wrap;html=1;aspect=fixed;" vertex="1" parent="1">
          <mxGeometry x="225" y="960" width="10" height="10" as="geometry" />
        </mxCell>
        <mxCell id="d5UcNyZ8xTuPlKqGbqK6-6" value="" style="ellipse;whiteSpace=wrap;html=1;aspect=fixed;" vertex="1" parent="1">
          <mxGeometry x="255" y="960" width="10" height="10" as="geometry" />
        </mxCell>
        <mxCell id="d5UcNyZ8xTuPlKqGbqK6-7" value="" style="ellipse;whiteSpace=wrap;html=1;aspect=fixed;" vertex="1" parent="1">
          <mxGeometry x="285" y="960" width="10" height="10" as="geometry" />
        </mxCell>
        <mxCell id="d5UcNyZ8xTuPlKqGbqK6-8" value="" style="ellipse;whiteSpace=wrap;html=1;aspect=fixed;" vertex="1" parent="1">
          <mxGeometry x="315" y="960" width="10" height="10" as="geometry" />
        </mxCell>
        <mxCell id="d5UcNyZ8xTuPlKqGbqK6-9" value="" style="ellipse;whiteSpace=wrap;html=1;aspect=fixed;" vertex="1" parent="1">
          <mxGeometry x="345" y="960" width="10" height="10" as="geometry" />
        </mxCell>
        <mxCell id="d5UcNyZ8xTuPlKqGbqK6-10" value="" style="ellipse;whiteSpace=wrap;html=1;aspect=fixed;" vertex="1" parent="1">
          <mxGeometry x="90" y="990" width="10" height="10" as="geometry" />
        </mxCell>
        <mxCell id="d5UcNyZ8xTuPlKqGbqK6-11" value="" style="ellipse;whiteSpace=wrap;html=1;aspect=fixed;" vertex="1" parent="1">
          <mxGeometry x="120" y="990" width="10" height="10" as="geometry" />
        </mxCell>
        <mxCell id="d5UcNyZ8xTuPlKqGbqK6-12" value="" style="ellipse;whiteSpace=wrap;html=1;aspect=fixed;" vertex="1" parent="1">
          <mxGeometry x="150" y="990" width="10" height="10" as="geometry" />
        </mxCell>
        <mxCell id="d5UcNyZ8xTuPlKqGbqK6-13" value="" style="ellipse;whiteSpace=wrap;html=1;aspect=fixed;" vertex="1" parent="1">
          <mxGeometry x="180" y="990" width="10" height="10" as="geometry" />
        </mxCell>
        <mxCell id="d5UcNyZ8xTuPlKqGbqK6-14" value="" style="ellipse;whiteSpace=wrap;html=1;aspect=fixed;" vertex="1" parent="1">
          <mxGeometry x="210" y="990" width="10" height="10" as="geometry" />
        </mxCell>
        <mxCell id="d5UcNyZ8xTuPlKqGbqK6-15" value="" style="ellipse;whiteSpace=wrap;html=1;aspect=fixed;" vertex="1" parent="1">
          <mxGeometry x="240" y="990" width="10" height="10" as="geometry" />
        </mxCell>
        <mxCell id="d5UcNyZ8xTuPlKqGbqK6-16" value="" style="ellipse;whiteSpace=wrap;html=1;aspect=fixed;" vertex="1" parent="1">
          <mxGeometry x="270" y="990" width="10" height="10" as="geometry" />
        </mxCell>
        <mxCell id="d5UcNyZ8xTuPlKqGbqK6-17" value="" style="ellipse;whiteSpace=wrap;html=1;aspect=fixed;" vertex="1" parent="1">
          <mxGeometry x="300" y="990" width="10" height="10" as="geometry" />
        </mxCell>
        <mxCell id="d5UcNyZ8xTuPlKqGbqK6-18" value="" style="ellipse;whiteSpace=wrap;html=1;aspect=fixed;" vertex="1" parent="1">
          <mxGeometry x="330" y="990" width="10" height="10" as="geometry" />
        </mxCell>
        <mxCell id="d5UcNyZ8xTuPlKqGbqK6-19" value="" style="ellipse;whiteSpace=wrap;html=1;aspect=fixed;" vertex="1" parent="1">
          <mxGeometry x="360" y="990" width="10" height="10" as="geometry" />
        </mxCell>
      </root>
    </mxGraphModel>
  </diagram>
</mxfile>
